# xmcd
#
# Track frame offsets: 
#        150
#        16162
#        37167
#        56717
#        73145
#        90280
#        116612
#        142430
#        163335
#        185167
#        207820
#        234772
#        259012
#
# Disc length: 3723 seconds
#
# Revision: 0
# Processed by: cddbd v1.5.1PL2 Copyright (c) Steve Scherf et al.
# Submitted via: ExactAudioCopy v0.95a3
#
DISCID=be0e890d
DTITLE=Unbekannter Künstler - Schön können die Anderen
DYEAR=1900
DGENRE=Country
TTITLE0=Give me more
TTITLE1=Es wird Zeit
TTITLE2=Cowboys
TTITLE3=Good bye John
TTITLE4=Jackie D
TTITLE5=Monis Bar
TTITLE6=Dum Didel Dum
TTITLE7=Wölfe
TTITLE8=Reservation
TTITLE9=Whisky Song
TTITLE10=Easy
TTITLE11=Riverboat
TTITLE12=Country Music
EXTD=
EXTT0=
EXTT1=
EXTT2=
EXTT3=
EXTT4=
EXTT5=
EXTT6=
EXTT7=
EXTT8=
EXTT9=
EXTT10=
EXTT11=
EXTT12=
PLAYORDER=
